<?xml version="1.0" encoding="iso-8859-1"?>
<!-- Generator: Adobe Illustrator 22.1.0, SVG Export Plug-In . SVG Version: 6.00 Build 0)  -->
<svg version="1.1" id="Capa_1" xmlns="http://www.w3.org/2000/svg" xmlns:xlink="http://www.w3.org/1999/xlink" x="0px" y="0px"
	 viewBox="0 0 100 100" style="enable-background:new 0 0 100 100;" xml:space="preserve">
<g id="Capa_27">
	<g id="radio1_1_">
		<path style="fill:#006341;" d="M50,3.572C24.359,3.572,3.572,24.359,3.572,50S24.359,96.428,50,96.428S96.428,75.641,96.428,50
			C96.389,24.375,75.625,3.611,50,3.572z"/>
	</g>
	<g id="radio_3_">
		<g>
			<path style="fill:#575757;" d="M50.013,100C22.424,100,0,77.576,0,50.013C0,22.424,22.424,0,49.987,0h0.026
				C77.576,0,100,22.424,100,49.987C100,77.576,77.576,100,50.013,100z M49.985,8.256c-23.01,0-41.729,18.72-41.729,41.729
				c0,23.039,18.72,41.758,41.729,41.758c23.039,0,41.758-18.72,41.758-41.729c0-23.039-18.72-41.758-41.729-41.758
				C50.015,8.256,49.985,8.256,49.985,8.256z"/>
		</g>
	</g>
</g>
<g id="Capa_1_1_">
</g>
</svg>
